<?xml version="1.0" standalone="no"?>
<!DOCTYPE svg PUBLIC "-//W3C//DTD SVG 20010904//EN"
 "http://www.w3.org/TR/2001/REC-SVG-20010904/DTD/svg10.dtd">
<svg version="1.0" xmlns="http://www.w3.org/2000/svg"
 width="160.000000pt" height="160.000000pt" viewBox="0 0 160.000000 160.000000"
 preserveAspectRatio="xMidYMid meet">
<metadata>
Created by potrace 1.14, written by Peter Selinger 2001-2017
</metadata>
<g transform="translate(0.000000,160.000000) scale(0.100000,-0.100000)"
fill="#000000" stroke="none">
<path d="M1522 1485 c-22 -16 -88 -105 -77 -105 3 0 -1 -13 -9 -28 -28 -54
-42 -173 -41 -337 2 -141 4 -164 22 -195 11 -20 19 -48 17 -65 -1 -16 -5 -79
-8 -140 -4 -60 -9 -144 -12 -185 -9 -129 -13 -247 -8 -267 7 -27 40 -44 87
-45 32 0 46 5 63 25 24 28 24 50 10 267 -23 332 -24 394 -6 415 8 9 16 24 18
34 8 36 8 607 0 624 -11 21 -27 22 -56 2z"/>
<path d="M45 1471 c-3 -11 -8 -42 -10 -68 -2 -27 -7 -88 -11 -138 -12 -139 -8
-228 10 -263 9 -18 20 -32 25 -32 5 0 18 -19 29 -42 19 -40 21 -56 17 -208 -3
-91 -7 -181 -9 -200 -3 -19 -7 -55 -10 -80 -3 -25 -8 -58 -11 -75 -3 -16 -8
-39 -10 -50 -2 -11 -7 -38 -12 -60 -5 -22 -8 -46 -7 -52 1 -7 2 -21 3 -32 3
-45 99 -72 154 -44 51 26 53 50 14 238 -15 70 -21 126 -33 300 -14 217 -12
233 47 307 38 49 42 61 42 143 0 57 -18 269 -28 320 -2 11 -4 28 -4 38 -1 10
-5 16 -10 13 -4 -3 -7 -89 -6 -191 2 -102 -1 -188 -6 -191 -5 -3 -9 1 -10 8 0
7 -2 22 -4 33 -3 11 -7 72 -10 135 -3 63 -8 131 -11 150 -2 19 -5 41 -6 48 -1
7 -5 9 -10 4 -4 -4 -9 -92 -11 -195 -1 -103 -5 -187 -9 -187 -5 0 -8 3 -9 8
-3 22 -7 122 -9 227 -2 106 -14 189 -21 145 -10 -65 -16 -154 -19 -283 -1 -48
-6 -90 -11 -93 -12 -7 -12 -12 -14 194 -2 177 -6 215 -20 173z"/>
<path d="M655 1321 c-82 -24 -126 -44 -181 -82 -47 -32 -144 -127 -144 -140 0
-4 -6 -14 -14 -21 -13 -13 -55 -99 -70 -142 -27 -79 -28 -255 -1 -341 105
-339 471 -505 796 -361 158 70 278 215 323 391 21 81 15 240 -11 317 -60 172
-194 306 -370 369 -81 29 -245 34 -328 10z"/>
</g>
</svg>
